<?xml version="1.0" encoding="UTF-8"?>
<svg id="Layer_1" data-name="Layer 1" xmlns="http://www.w3.org/2000/svg" width="200" height="200" viewBox="0 0 200 200">
  <rect width="200" height="200" fill="#fff"/>
  <polygon points="28.92 156.47 28.92 156.48 99.61 115.96 28.92 156.47"/>
  <polygon points="28.92 154.17 28.92 156.46 99.61 115.96 99.61 113.66 28.92 154.17"/>
  <polygon points="28.92 141.47 28.92 143.78 99.61 103.27 99.61 100.97 28.92 141.47"/>
  <polygon points="28.92 128.78 28.92 131.07 99.61 90.57 99.61 88.27 28.92 128.78"/>
  <polygon points="28.92 116.08 28.92 118.38 99.61 77.88 99.61 75.57 28.92 116.08"/>
  <polygon points="28.92 103.38 28.92 105.68 99.61 65.18 99.61 62.87 28.92 103.38"/>
  <polygon points="28.92 90.68 28.92 92.98 99.61 52.48 99.61 50.17 28.92 90.68"/>
  <polygon points="99.61 37.52 28.92 78.04 28.92 80.29 99.61 39.77 99.61 37.52"/>
  <polygon points="99.61 37.52 99.61 115.96 171.08 156.48 171.08 78.04 99.61 37.52"/>
</svg>
