<svg xmlns="http://www.w3.org/2000/svg" width="512" height="512" viewBox="0 0 512 512">
  <!-- Background -->
  <rect width="512" height="512" rx="96" fill="#1A1A1A"/>

  <!-- Entrecasa iso (exact vector) -->
  <g transform="translate(90,118.4) scale(10.983)" fill="#FFCD00">
    <path d="M0.001,25.054 v0 l15.031,-8.535Z"/>
    <path d="M0.001,24.569 v0.484 l15.031,-8.531 v-0.485Z"/>
    <path d="M0.001,21.895 v0.486 l15.031,-8.533 v-0.485Z"/>
    <path d="M0.001,19.222 v0.484 L15.032,11.174 v-0.486Z"/>
    <path d="M0.001,16.548 v0.484 l15.031,-8.531 v-0.486Z"/>
    <path d="M0.001,13.873 v0.485 l15.031,-8.532 v-0.486Z"/>
    <path d="M0.001,11.197 v0.485 l15.031,-8.532 V2.665Z"/>
    <path d="M15.031,0 L0,8.534 v0.474 l15.031,-8.533Z"/>
    <path d="M15.03,0 V16.522 l15.2,8.534 V8.534Z"/>
  </g>
</svg>
