<svg xmlns="http://www.w3.org/2000/svg" width="1200" height="630" viewBox="0 0 1200 630">
  <!-- Background -->
  <rect width="1200" height="630" fill="#1A1A1A"/>

  <!-- Entrecasa iso (exact vector) -->
  <g transform="translate(500,100) scale(6.616)" fill="#FFCD00">
    <path d="M0.001,25.054 v0 l15.031,-8.535Z"/>
    <path d="M0.001,24.569 v0.484 l15.031,-8.531 v-0.485Z"/>
    <path d="M0.001,21.895 v0.486 l15.031,-8.533 v-0.485Z"/>
    <path d="M0.001,19.222 v0.484 L15.032,11.174 v-0.486Z"/>
    <path d="M0.001,16.548 v0.484 l15.031,-8.531 v-0.486Z"/>
    <path d="M0.001,13.873 v0.485 l15.031,-8.532 v-0.486Z"/>
    <path d="M0.001,11.197 v0.485 l15.031,-8.532 V2.665Z"/>
    <path d="M15.031,0 L0,8.534 v0.474 l15.031,-8.533Z"/>
    <path d="M15.03,0 V16.522 l15.2,8.534 V8.534Z"/>
  </g>

  <!-- Title: ENTRECASA volanta + TRAINER bold -->
  <text x="600" y="340" text-anchor="middle" font-family="system-ui,-apple-system,sans-serif" font-size="16" font-weight="400" fill="rgba(245,240,232,0.5)" letter-spacing="4">ENTRECASA</text>
  <text x="600" y="390" text-anchor="middle" font-family="system-ui,-apple-system,sans-serif" font-size="52" font-weight="800" fill="#F5F0E8" letter-spacing="5">TRAINER</text>

  <!-- Subtitle -->
  <text x="600" y="440" text-anchor="middle" font-family="system-ui,-apple-system,sans-serif" font-size="22" font-weight="300" fill="#ABABAB" letter-spacing="0.5">Tu plan de entrenamiento</text>

  <!-- Accent line -->
  <rect x="550" y="460" width="100" height="2" rx="1" fill="#FFCD00" fill-opacity="0.4"/>
</svg>
